<?xml version="1.0" encoding="UTF-8"?>
<svg version="1.1" xmlns="http://www.w3.org/2000/svg" width="571" height="277">
<path d="M0 0 C0.70210773 0.00086648 1.40421546 0.00173296 2.12759918 0.0026257 C3.23900769 -0.00183098 3.23900769 -0.00183098 4.3728689 -0.0063777 C6.87522488 -0.01510317 9.37753323 -0.01657625 11.87990326 -0.01806521 C13.66687635 -0.02269118 15.45384845 -0.02771554 17.24081939 -0.03311038 C22.11357953 -0.04626969 26.98632586 -0.05268779 31.859101 -0.05712104 C34.90707231 -0.06004996 37.95503984 -0.06415473 41.00300926 -0.06862521 C50.54874606 -0.08231794 60.09447422 -0.09197227 69.64022017 -0.0958271 C80.63891305 -0.10029316 91.63748074 -0.11776573 102.63613558 -0.1468277 C111.14504286 -0.16852447 119.65391516 -0.17853586 128.16284978 -0.17986822 C133.23944663 -0.18091181 138.31592609 -0.18672234 143.39249367 -0.20468783 C148.18184546 -0.22130393 152.97099345 -0.22325911 157.760364 -0.21454883 C159.50649958 -0.21378526 161.25264672 -0.21802978 162.99875396 -0.22800708 C174.09660552 -0.28763229 184.28635808 0.6909851 195.12965912 3.1430676 C195.79216143 3.29108996 196.45466375 3.43911232 197.1372419 3.59162021 C200.80879907 4.41238137 204.47256322 5.26010438 208.12965912 6.1430676 C208.12965912 6.8030676 208.12965912 7.4630676 208.12965912 8.1430676 C209.03715912 8.2049426 209.94465912 8.2668176 210.87965912 8.3305676 C225.71696978 10.48437076 239.21764259 20.65908211 251.12965912 29.1430676 C251.91469818 29.67673947 252.69973724 30.21041135 253.50856537 30.7602551 C255.08507734 31.83674207 256.61524549 32.98084319 258.12965912 34.1430676 C258.12965912 34.8030676 258.12965912 35.4630676 258.12965912 36.1430676 C258.96497162 36.4833801 258.96497162 36.4833801 259.81715912 36.8305676 C262.78803061 38.5167379 264.73788869 40.69693876 267.12965912 43.1430676 C269.25702734 44.9455863 271.39614369 46.73047274 273.55544037 48.4946301 C275.12965912 50.1430676 275.12965912 50.1430676 275.12965912 53.1430676 C275.96497162 53.4833801 275.96497162 53.4833801 276.81715912 53.8305676 C279.78219358 55.513425 281.78319601 57.67928133 284.12965912 60.1430676 C284.89278412 60.8649426 285.65590912 61.5868176 286.44215912 62.3305676 C288.12965912 64.1430676 288.12965912 64.1430676 288.12965912 66.1430676 C289.11965912 66.1430676 290.10965912 66.1430676 291.12965912 66.1430676 C292.38280976 67.56110649 293.62798716 68.98913223 294.78981537 70.48291135 C296.28716408 72.40465435 296.28716408 72.40465435 298.94215912 74.8930676 C301.12965912 77.1430676 301.12965912 77.1430676 301.12965912 79.1430676 C301.81028412 79.3080676 302.49090912 79.4730676 303.19215912 79.6430676 C306.81383594 81.49243449 308.65834469 83.82714876 311.23512787 86.92041135 C314.78812889 91.08877749 318.74209363 94.91697997 322.74684662 98.6508801 C323.9256403 99.76307527 325.03608895 100.94697523 326.12965912 102.1430676 C326.12965912 103.1330676 326.12965912 104.1230676 326.12965912 105.1430676 C322.79632578 108.1430676 322.79632578 108.1430676 320.12965912 108.1430676 C319.75840912 109.0093176 319.75840912 109.0093176 319.37965912 109.8930676 C317.94665923 112.47246739 316.34541235 114.20428352 314.12965912 116.1430676 C313.46965912 116.1430676 312.80965912 116.1430676 312.12965912 116.1430676 C311.75840912 117.0093176 311.75840912 117.0093176 311.37965912 117.8930676 C309.94665923 120.47246739 308.34541235 122.20428352 306.12965912 124.1430676 C305.46965912 124.1430676 304.80965912 124.1430676 304.12965912 124.1430676 C303.75840912 125.0093176 303.75840912 125.0093176 303.37965912 125.8930676 C301.94665923 128.47246739 300.34541235 130.20428352 298.12965912 132.1430676 C297.46965912 132.1430676 296.80965912 132.1430676 296.12965912 132.1430676 C295.88215912 132.7205676 295.63465912 133.2980676 295.37965912 133.8930676 C293.94665923 136.47246739 292.34541235 138.20428352 290.12965912 140.1430676 C289.46965912 140.1430676 288.80965912 140.1430676 288.12965912 140.1430676 C287.88215912 140.7205676 287.63465912 141.2980676 287.37965912 141.8930676 C285.94665923 144.47246739 284.34541235 146.20428352 282.12965912 148.1430676 C281.46965912 148.1430676 280.80965912 148.1430676 280.12965912 148.1430676 C279.46965912 149.4630676 278.80965912 150.7830676 278.12965912 152.1430676 C276.47965912 151.8130676 274.82965912 151.4830676 273.12965912 151.1430676 C272.79965912 150.1530676 272.46965912 149.1630676 272.12965912 148.1430676 C270.80558243 147.45820035 269.47056671 146.79436557 268.12965912 146.1430676 C265.87965912 144.1430676 265.87965912 144.1430676 264.12965912 142.1430676 C264.12965912 141.4830676 264.12965912 140.8230676 264.12965912 140.1430676 C263.26340912 139.7718176 263.26340912 139.7718176 262.37965912 139.3930676 C259.80025932 137.96006771 258.0684432 136.35882083 256.12965912 134.1430676 C256.12965912 133.4830676 256.12965912 132.8230676 256.12965912 132.1430676 C255.26340912 131.7718176 255.26340912 131.7718176 254.37965912 131.3930676 C251.80025932 129.96006771 250.0684432 128.35882083 248.12965912 126.1430676 C248.12965912 125.4830676 248.12965912 124.8230676 248.12965912 124.1430676 C247.55215912 123.8955676 246.97465912 123.6480676 246.37965912 123.3930676 C243.80025932 121.96006771 242.0684432 120.35882083 240.12965912 118.1430676 C240.12965912 117.4830676 240.12965912 116.8230676 240.12965912 116.1430676 C239.55215912 115.8955676 238.97465912 115.6480676 238.37965912 115.3930676 C235.80025932 113.96006771 234.0684432 112.35882083 232.12965912 110.1430676 C232.12965912 109.4830676 232.12965912 108.8230676 232.12965912 108.1430676 C231.55215912 107.8955676 230.97465912 107.6480676 230.37965912 107.3930676 C227.80025932 105.96006771 226.0684432 104.35882083 224.12965912 102.1430676 C224.12965912 101.4830676 224.12965912 100.8230676 224.12965912 100.1430676 C223.55215912 99.8955676 222.97465912 99.6480676 222.37965912 99.3930676 C219.80025932 97.96006771 218.0684432 96.35882083 216.12965912 94.1430676 C216.12965912 93.4830676 216.12965912 92.8230676 216.12965912 92.1430676 C215.53153412 91.8749426 214.93340912 91.6068176 214.31715912 91.3305676 C212.14239247 90.14997999 210.861494 88.87490248 209.12965912 87.1430676 C208.13965912 86.8130676 207.14965912 86.4830676 206.12965912 86.1430676 C205.12965912 85.1430676 204.12965912 84.1430676 203.12965912 83.1430676 C202.13965912 82.8130676 201.14965912 82.4830676 200.12965912 82.1430676 C200.12965912 81.4830676 200.12965912 80.8230676 200.12965912 80.1430676 C199.49028412 80.0605676 198.85090912 79.9780676 198.19215912 79.8930676 C195.52553574 79.24001698 193.57526548 78.44808393 191.12965912 77.2680676 C177.20928376 71.06903885 162.9630439 71.67061547 148.01637787 71.63134885 C145.5911419 71.61448025 143.16591456 71.59632711 140.74069732 71.57695127 C134.39674587 71.52968218 128.05282941 71.49972379 121.70876068 71.47351193 C115.21943261 71.44358937 108.73022483 71.39709948 102.24098724 71.35205197 C89.53726069 71.26628171 76.83354608 71.20035362 64.12965912 71.1430676 C64.12965912 81.3730676 64.12965912 91.6030676 64.12965912 102.1430676 C67.2277597 102.12735715 70.32586029 102.1116467 73.51784271 102.09546018 C83.77562562 102.04566017 94.03341399 102.01257701 104.29128593 101.98763108 C110.50814617 101.97200246 116.72488212 101.95081524 122.94167084 101.91674924 C128.94577891 101.88405608 134.94976773 101.86619351 140.95395797 101.85843587 C143.23998526 101.85291024 145.52600632 101.84212015 147.81198257 101.82587743 C151.02397318 101.80397109 154.23547644 101.80110622 157.44753021 101.80249143 C158.38405426 101.7917056 159.32057831 101.78091977 160.28548187 101.7698071 C169.32329871 101.81174129 177.01268936 104.19645769 184.94215912 108.5180676 C186.52963959 109.36498166 186.52963959 109.36498166 188.14919037 110.2290051 C191.27430715 112.23596083 193.58235431 114.4535275 196.12965912 117.1430676 C197.15551346 118.03655364 198.19406178 118.91611236 199.25465912 119.7680676 C203.59774422 123.35583356 203.59774422 123.35583356 205.12965912 125.1430676 C205.12965912 125.8030676 205.12965912 126.4630676 205.12965912 127.1430676 C205.78965912 127.1430676 206.44965912 127.1430676 207.12965912 127.1430676 C208.68044037 128.71728635 208.68044037 128.71728635 210.44215912 130.8305676 C214.8499672 136.00178986 219.49266546 140.54302368 224.77419037 144.81103635 C225.22149505 145.25060666 225.66879974 145.69017697 226.12965912 146.1430676 C226.12965912 146.8030676 226.12965912 147.4630676 226.12965912 148.1430676 C226.78965912 148.1430676 227.44965912 148.1430676 228.12965912 148.1430676 C229.46861544 149.80522028 230.80096054 151.47270367 232.12965912 153.1430676 C233.03715912 153.8649426 233.94465912 154.5868176 234.87965912 155.3305676 C235.62215912 155.9286926 236.36465912 156.5268176 237.12965912 157.1430676 C237.12965912 157.8030676 237.12965912 158.4630676 237.12965912 159.1430676 C237.78965912 159.1430676 238.44965912 159.1430676 239.12965912 159.1430676 C240.61012787 160.6821301 240.61012787 160.6821301 242.31715912 162.7680676 C245.23972542 166.23094027 248.28796814 169.11817667 251.84450287 171.9165051 C252.26860443 172.32127072 252.69270599 172.72603635 253.12965912 173.1430676 C253.12965912 173.8030676 253.12965912 174.4630676 253.12965912 175.1430676 C254.11965912 175.4730676 255.10965912 175.8030676 256.12965912 176.1430676 C256.12965912 176.8030676 256.12965912 177.4630676 256.12965912 178.1430676 C256.78965912 178.1430676 257.44965912 178.1430676 258.12965912 178.1430676 C259.46169037 179.49853635 259.46169037 179.49853635 260.94215912 181.3305676 C264.22781421 185.28611353 267.60309304 188.92181474 271.62965912 192.1430676 C274.12965912 194.1430676 274.12965912 194.1430676 276.37965912 196.6430676 C287.82693775 207.04968454 306.72475758 204.29225771 321.27614349 204.25659299 C322.92380278 204.25631003 324.57146218 204.25647097 326.2191214 204.25703549 C330.63746587 204.25731922 335.05578249 204.251492 339.47412056 204.24446154 C344.11186207 204.23815648 348.74960441 204.23761859 353.38734955 204.23643613 C362.14519148 204.23334371 370.90302075 204.22515884 379.66085714 204.21508664 C389.64168951 204.20386017 399.62252252 204.19839868 409.60335964 204.1933912 C430.11213317 204.18297419 450.62089534 204.16541573 471.12965912 204.1430676 C469.91729584 202.93070432 469.91729584 202.93070432 468.68044037 201.69384885 C466.53460703 199.54801552 464.3887737 197.40218218 462.24294037 195.25634885 C461.71917816 194.73331174 461.19541595 194.21027463 460.65578216 193.67138791 C459.23821026 192.25177503 457.82814602 190.82467609 456.41872162 189.39697385 C454.09739534 187.03796703 454.09739534 187.03796703 451.19215912 184.7680676 C448.28555323 182.39806587 445.96229241 179.71769377 443.56715912 176.84228635 C440.89009828 173.67782585 438.04916265 170.84479398 434.75465912 168.3305676 C431.75300999 165.82919333 429.35548039 163.05183766 426.81715912 160.09228635 C423.68217958 156.47109471 420.30095817 153.26762091 416.62965912 150.2055676 C413.35647137 147.44248703 410.82083599 144.47162847 408.12965912 141.1430676 C405.57353276 138.45585784 403.00967802 136.04558296 400.12965912 133.7055676 C397.05062031 131.07555528 394.6788751 128.2805642 392.12965912 125.1430676 C389.70969683 122.6021072 387.33349165 120.30215641 384.56715912 118.1430676 C381.98488859 116.02428152 380.18075826 113.77103838 378.12965912 111.1430676 C375.63436456 108.51980922 373.17642767 106.17944314 370.31715912 103.9555676 C369.59528412 103.3574426 368.87340912 102.7593176 368.12965912 102.1430676 C368.12965912 101.4830676 368.12965912 100.8230676 368.12965912 100.1430676 C367.46965912 100.1430676 366.80965912 100.1430676 366.12965912 100.1430676 C364.64919037 98.6040051 364.64919037 98.6040051 362.94215912 96.5180676 C360.0856279 93.14867274 357.12729509 90.2556259 353.70778412 87.46728635 C352.07280228 86.09535852 350.54962477 84.73839046 349.12965912 83.1430676 C349.12965912 82.4830676 349.12965912 81.8230676 349.12965912 81.1430676 C348.46965912 81.1430676 347.80965912 81.1430676 347.12965912 81.1430676 C347.45965912 79.8230676 347.78965912 78.5030676 348.12965912 77.1430676 C348.78965912 77.1430676 349.44965912 77.1430676 350.12965912 77.1430676 C350.51637787 76.26908322 350.51637787 76.26908322 350.91090912 75.3774426 C352.22799928 72.96277729 353.68054296 71.32566582 355.62965912 69.3930676 C356.23809662 68.77947385 356.84653412 68.1658801 357.47340912 67.5336926 C359.12965912 66.1430676 359.12965912 66.1430676 361.12965912 66.1430676 C361.45965912 65.1530676 361.78965912 64.1630676 362.12965912 63.1430676 C362.78965912 63.1430676 363.44965912 63.1430676 364.12965912 63.1430676 C364.33590912 62.5861926 364.54215912 62.0293176 364.75465912 61.4555676 C366.31097966 58.83811941 368.24075364 57.3096291 370.61012787 55.43603635 C372.77992273 53.58975846 374.40639028 51.401144 376.12965912 49.1430676 C377.75465912 47.3305676 377.75465912 47.3305676 379.12965912 46.1430676 C379.78965912 46.1430676 380.44965912 46.1430676 381.12965912 46.1430676 C381.78965912 44.8230676 382.44965912 43.5030676 383.12965912 42.1430676 C383.78965912 42.1430676 384.44965912 42.1430676 385.12965912 42.1430676 C385.50090912 41.2768176 385.50090912 41.2768176 385.87965912 40.3930676 C387.312659 37.81366781 388.91390588 36.08185168 391.12965912 34.1430676 C391.78965912 34.1430676 392.44965912 34.1430676 393.12965912 34.1430676 C393.78965912 32.8230676 394.44965912 31.5030676 395.12965912 30.1430676 C399.42371331 30.62018473 401.23823657 33.11716028 404.12965912 36.1430676 C405.28722032 37.13298201 406.45436248 38.11177645 407.62965912 39.0805676 C410.90284687 41.84364817 413.43848224 44.81450672 416.12965912 48.1430676 C418.68578547 50.83027736 421.24964021 53.24055224 424.12965912 55.5805676 C427.20869793 58.21057992 429.58044313 61.005571 432.12965912 64.1430676 C434.68578547 66.83027736 437.24964021 69.24055224 440.12965912 71.5805676 C443.20869793 74.21057992 445.58044313 77.005571 448.12965912 80.1430676 C450.48889945 82.62026995 452.7850619 84.88008552 455.50465912 86.9555676 C458.50457906 89.45550089 460.90105637 92.228954 463.43434662 95.1899426 C465.55276852 97.63052083 467.81481944 99.88914476 470.12965912 102.1430676 C470.89278412 102.9268176 471.65590912 103.7105676 472.44215912 104.5180676 C474.61635731 106.64170304 476.82119042 108.60992359 479.12965912 110.5805676 C482.55239203 113.5409426 485.29744201 116.62193282 488.12965912 120.1430676 C490.68578547 122.83027736 493.24964021 125.24055224 496.12965912 127.5805676 C499.20869793 130.21057992 501.58044313 133.005571 504.12965912 136.1430676 C506.68474946 138.7620352 509.29682428 141.3028032 511.94215912 143.8305676 C514.12965912 146.1430676 514.12965912 146.1430676 514.12965912 148.1430676 C514.72657562 148.41401242 515.32349212 148.68495725 515.93849701 148.96411252 C518.10060826 150.12743678 519.48059897 151.26233214 521.18825287 153.00634885 C521.73932709 153.56386838 522.2904013 154.12138791 522.85817474 154.69580197 C523.70412201 155.56688596 523.70412201 155.56688596 524.56715912 156.4555676 C525.12725677 157.02468869 525.68735443 157.59380979 526.26442474 158.18017697 C527.37213305 159.30598087 528.47803895 160.43356131 529.58205169 161.56298947 C532.55472407 164.59803216 535.56904497 167.59044953 538.59450287 170.5727551 C546.07378068 177.96932368 546.07378068 177.96932368 549.37965912 181.9555676 C551.98817952 185.10048798 554.98424851 187.53304603 558.12965912 190.1430676 C562.89097254 195.28835791 564.31052618 198.49762004 564.31715912 205.4555676 C564.3313388 206.77170041 564.34551849 208.08783322 564.36012787 209.44384885 C564.14408716 212.91148534 563.78768273 215.11896472 562.12965912 218.1430676 C560.64465912 219.1330676 560.64465912 219.1330676 559.12965912 220.1430676 C558.84090912 220.8030676 558.55215912 221.4630676 558.25465912 222.1430676 C556.72832082 224.85655791 554.95841593 225.01156487 552.12965912 226.1430676 C550.97957602 228.10979675 550.97957602 228.10979675 550.12965912 230.1430676 C548.64465912 231.1330676 548.64465912 231.1330676 547.12965912 232.1430676 C545.93733298 234.19310714 545.93733298 234.19310714 545.12965912 236.1430676 C544.13965912 236.1430676 543.14965912 236.1430676 542.12965912 236.1430676 C542.12965912 236.8030676 542.12965912 237.4630676 542.12965912 238.1430676 C541.46965912 238.1430676 540.80965912 238.1430676 540.12965912 238.1430676 C539.86797943 238.74377072 539.60629974 239.34447385 539.33669037 239.9633801 C538.05543113 242.27711037 536.8815883 243.3976509 534.81715912 245.0180676 C530.45731192 248.6106539 527.15919627 252.82314817 523.69215912 257.2680676 C521.05185726 260.23035748 518.44721299 262.00048072 515.12965912 264.1430676 C512.89235325 266.27631272 510.75131118 268.40838789 508.75465912 270.7680676 C503.75564145 274.99800562 498.10200274 275.58753393 491.7876181 275.57544065 C490.97203147 275.58562663 490.15644483 275.59581262 489.31614345 275.60630727 C486.58594376 275.63663854 483.85610014 275.64577775 481.12575287 275.65478635 C479.14768467 275.67185137 477.16962645 275.69010907 475.19157928 275.70945859 C469.78359094 275.75817664 464.37564976 275.78761755 458.96750778 275.81302762 C454.41675191 275.83650173 449.86609706 275.87044787 445.31540722 275.90413785 C428.92031084 276.02414557 412.52509689 276.09176088 396.12965912 276.1430676 C395.09517985 276.14632062 395.09517985 276.14632062 394.03980201 276.14963937 C373.16741107 276.21465331 352.29504135 276.25166569 331.42255539 276.26511121 C328.59846562 276.26696581 325.77437713 276.26935786 322.95028824 276.27224469 C314.85484761 276.28044083 306.75944787 276.28329512 298.66400284 276.27757573 C296.19245813 276.27645793 293.72091209 276.27695301 291.24936813 276.27917409 C287.85535671 276.2817317 284.46140992 276.27794606 281.06740326 276.27246213 C279.59339632 276.27550367 279.59339632 276.27550367 278.08961147 276.27860665 C264.52225566 276.23706316 251.21180084 274.25486268 241.12965912 264.1430676 C241.12965912 263.4830676 241.12965912 262.8230676 241.12965912 262.1430676 C240.54539154 261.8833215 239.96112396 261.62357541 239.3591513 261.35595822 C236.97404747 260.05841159 235.37775275 258.64965637 233.45778412 256.7368176 C232.79391693 256.07552854 232.13004974 255.41423947 231.44606537 254.73291135 C230.7641513 254.04326291 230.08223724 253.35361447 229.37965912 252.6430676 C228.6822763 251.95341916 227.98489349 251.26377072 227.26637787 250.55322385 C226.60766693 249.89193479 225.94895599 249.23064572 225.27028412 248.5493176 C224.66732513 247.94410275 224.06436615 247.33888791 223.44313568 246.71533322 C222.12965912 245.1430676 222.12965912 245.1430676 222.12965912 243.1430676 C221.24407318 242.74668088 221.24407318 242.74668088 220.34059662 242.34228635 C218.04896512 241.09929895 216.5684234 239.81616617 214.75465912 237.9555676 C214.15395599 237.33939572 213.55325287 236.72322385 212.93434662 236.0883801 C210.69374156 233.67318244 208.56954132 231.17741738 206.48903412 228.62353635 C205.00195173 226.88624769 205.00195173 226.88624769 202.12965912 225.1430676 C202.12965912 224.4830676 202.12965912 223.8230676 202.12965912 223.1430676 C201.55731537 222.8955676 200.98497162 222.6480676 200.39528412 222.3930676 C197.779553 220.9499056 195.98192456 219.26090538 193.87965912 217.1430676 C192.82004974 216.0911926 192.82004974 216.0911926 191.73903412 215.0180676 C190.12965912 213.1430676 190.12965912 213.1430676 190.12965912 211.1430676 C189.53274261 210.87212277 188.93582611 210.60117795 188.32082123 210.32202268 C186.15870997 209.15869842 184.77871926 208.02380306 183.07106537 206.27978635 C182.51999115 205.72226682 181.96891693 205.16474729 181.40114349 204.59033322 C180.55519623 203.71924924 180.55519623 203.71924924 179.69215912 202.8305676 C179.13206146 202.2614465 178.5719638 201.69232541 177.99489349 201.10595822 C176.88867879 199.98167234 175.78423325 198.85564267 174.68166107 197.7277844 C171.85996441 194.84660884 169.01178646 191.99448258 166.11012787 189.19384885 C165.51844818 188.62021604 164.92676849 188.04658322 164.31715912 187.4555676 C163.7125888 186.87420041 163.10801849 186.29283322 162.48512787 185.69384885 C161.12965912 184.1430676 161.12965912 184.1430676 161.12965912 182.1430676 C160.57278412 181.8749426 160.01590912 181.6068176 159.44215912 181.3305676 C157.12965912 180.1430676 157.12965912 180.1430676 155.06715912 178.7055676 C146.00867702 173.88722606 136.4300477 173.69791125 126.38673919 173.71069455 C124.93685084 173.70165833 123.48697008 173.6913266 122.0370993 173.67981076 C118.13496188 173.65243272 114.23297016 173.64298263 110.33074921 173.63695669 C106.2401171 173.62752257 102.1495917 173.60131544 98.05902618 173.57695127 C90.32810821 173.53342035 82.59721111 173.5047913 74.8662082 173.48162788 C66.05831999 173.45450398 57.25053984 173.41059715 48.44272906 173.36533916 C30.33842961 173.27268511 12.23410157 173.20091667 -5.87034088 173.1430676 C-5.89366754 150.73432566 -5.91131891 128.32558572 -5.92215306 105.91683412 C-5.92731651 95.51283035 -5.93436015 85.10883411 -5.94578034 74.70483518 C-5.95572567 65.64016486 -5.96219395 56.5755 -5.96442938 47.51082438 C-5.96573674 42.70804152 -5.96882422 37.90527426 -5.97607094 33.10249639 C-5.98282878 28.5873996 -5.98495833 24.07232492 -5.98344857 19.55722356 C-5.983725 17.8950958 -5.98573152 16.23296734 -5.98954636 14.57084394 C-5.99447992 12.31157068 -5.99334044 10.05238226 -5.9905954 7.79310727 C-5.99151719 6.52564192 -5.99243899 5.25817657 -5.99338871 3.95230317 C-5.78978129 -0.69614299 -4.20941761 0.02554065 0 0 Z " fill="#FFFFFF" transform="translate(6.870340883731842,0.8569324016571045)"/>
<path d="" fill="#FFFFFF" transform="translate(0,0)"/>
<path d="" fill="#FFFFFF" transform="translate(0,0)"/>
<path d="" fill="#FFFFFF" transform="translate(0,0)"/>
<path d="" fill="#FFFFFF" transform="translate(0,0)"/>
<path d="" fill="#FFFFFF" transform="translate(0,0)"/>
<path d="" fill="#FFFFFF" transform="translate(0,0)"/>
<path d="" fill="#FFFFFF" transform="translate(0,0)"/>
<path d="" fill="#FFFFFF" transform="translate(0,0)"/>
</svg>
