<?xml version="1.0" encoding="UTF-8"?>
<svg version="1.1" xmlns="http://www.w3.org/2000/svg" width="800" height="403">
<path d="M0 0 C54.03293454 -0.16121214 54.03293454 -0.16121214 76.7734375 -0.1953125 C92.44015779 -0.2189949 108.10679168 -0.24675009 123.7734375 -0.30175781 C135.18623769 -0.34181037 146.5989674 -0.3674764 158.01183593 -0.37635398 C164.04665669 -0.3815377 170.08127592 -0.39359417 176.11603165 -0.42292023 C181.81399996 -0.45038129 187.51168668 -0.45838397 193.20971489 -0.45243073 C195.28391369 -0.4535174 197.35812343 -0.46128615 199.43226433 -0.4768219 C217.89565455 -0.60815281 235.87930835 1.56747723 253.375 7.75 C254.87256836 8.26651123 254.87256836 8.26651123 256.40039062 8.79345703 C288.60274023 20.20753936 312.33276647 42.14747571 336.046875 65.94921875 C337.55408051 67.45829412 339.06151051 68.96714533 340.56915283 70.4757843 C344.49706385 74.40747583 348.42196006 78.34216308 352.34619141 82.27752686 C356.36696424 86.30861093 360.39064277 90.33679247 364.4140625 94.36523438 C372.27885466 102.24068488 380.1404583 110.11930987 388 118 C386.41466862 121.8721831 383.78737895 124.51508468 380.87939453 127.42700195 C380.35883484 127.95588516 379.83827515 128.48476837 379.30194092 129.02967834 C377.58432165 130.77134081 375.85918474 132.50529715 374.1328125 134.23828125 C372.93448319 135.44557691 371.73623192 136.65295002 370.53805542 137.86039734 C368.02827254 140.38665426 365.51414282 142.90849794 362.99755859 145.42797852 C359.76850893 148.66242895 356.5559475 151.91274768 353.34707832 155.16720295 C350.87970279 157.66425692 348.40121321 160.15004535 345.9194603 162.63280296 C344.72960388 163.82687531 343.54388393 165.02508403 342.36236954 166.22741127 C340.71291414 167.90360604 339.04852392 169.56339876 337.37939453 171.2199707 C336.6482695 171.97334717 336.6482695 171.97334717 335.90237427 172.74194336 C334.51760864 174.09712219 334.51760864 174.09712219 332 176 C328.68713417 175.66337806 327.03955476 174.40752708 324.74571228 172.07955933 C324.12504883 171.45723923 323.50438538 170.83491913 322.86491394 170.19374084 C322.19527115 169.50702805 321.52562836 168.82031525 320.83569336 168.11279297 C320.12126068 167.3923732 319.406828 166.67195343 318.67074585 165.92970276 C317.11839491 164.36257813 315.56948483 162.79203939 314.02360344 161.21853256 C311.57031344 158.72231546 309.10735203 156.2360273 306.64149475 153.75222778 C299.63166141 146.68736079 292.6415176 139.60310194 285.65356445 132.51660156 C281.37808071 128.18218761 277.09266532 123.85778474 272.8015461 119.53885269 C270.38586827 117.10113199 267.98220775 114.65197362 265.57859802 112.20236206 C258.21728364 104.7590517 251.33200681 97.93035787 242 93 C240.42992187 92.08154297 240.42992187 92.08154297 238.828125 91.14453125 C225.07033298 84.03633871 210.9729451 81.87121931 195.63891602 81.79467773 C194.40894394 81.78477814 193.17897186 81.77487854 191.91172791 81.76467896 C188.55688282 81.73859649 185.2020602 81.71669147 181.84717679 81.69667697 C178.33444817 81.67472195 174.82176148 81.64738008 171.30906677 81.62062073 C164.66528743 81.57082192 158.02148466 81.52583589 151.37765974 81.48259836 C143.81050367 81.43311608 136.2433897 81.37823891 128.67627442 81.32291877 C113.11755378 81.20929555 97.5587943 81.10312621 82 81 C82 93.54 82 106.08 82 119 C87.38034546 118.9685791 87.38034546 118.9685791 92.86938477 118.93652344 C104.76358834 118.8700366 116.65780524 118.82577371 128.55214024 118.79275131 C135.75873413 118.77220776 142.9651508 118.74424632 150.17163086 118.69824219 C156.45965024 118.6581207 162.74754115 118.6325077 169.035685 118.62364602 C172.35914433 118.61847345 175.68194785 118.60432819 179.00534248 118.57707977 C206.39523184 118.36158448 222.90053078 122.52329146 243 142 C248.95699882 147.8729761 254.82998014 153.82968688 260.70590591 159.78356743 C263.62839688 162.74410687 266.55793452 165.69760908 269.48898315 168.64967346 C269.98794763 169.15227532 270.4869121 169.65487718 271.00099671 170.17270941 C272.01945677 171.19857151 273.03793164 172.22441891 274.05642104 173.25025189 C280.85755783 180.10102048 287.65395769 186.95633548 294.43212891 193.82983398 C299.0370363 198.49939599 303.65269008 203.15804068 308.28077495 207.80463558 C310.71757035 210.25203569 313.1487313 212.70447103 315.56668472 215.1704998 C318.26255319 217.91483563 320.97676041 220.63973126 323.69580078 223.36108398 C324.47739563 224.16582153 325.25899048 224.97055908 326.06427002 225.79968262 C335.28480728 234.93698602 344.81798108 238.16646574 357.61164856 238.12025452 C358.47755023 238.12110894 359.3434519 238.12196337 360.23559302 238.12284368 C363.13600561 238.12449032 366.03636032 238.11899044 368.93676758 238.11352539 C371.01629637 238.11324332 373.09582527 238.11340165 375.175354 238.1139679 C380.82158077 238.11425508 386.46778635 238.10837101 392.11400819 238.10139394 C398.01437412 238.09514735 403.91474052 238.09455556 409.81510925 238.09336853 C420.98868511 238.09025907 432.1622512 238.08205086 443.33582276 238.07201904 C456.05637253 238.06084596 468.77692277 238.05534443 481.49747622 238.05032361 C507.66498957 238.03986795 533.83249424 238.02227594 560 238 C559.35192855 237.35285034 558.7038571 236.70570068 558.03614712 236.03894043 C542.25003304 220.27493352 526.46670502 204.5081419 510.68645382 188.73826599 C503.05510683 181.11207008 495.42282796 173.48681123 487.78833008 165.86376953 C481.13227154 159.21769417 474.47798675 152.56984882 467.82580477 145.91989326 C464.30515481 142.40054424 460.78363731 138.88207348 457.2599926 135.36572266 C453.93939293 132.05194055 450.62118074 128.73578607 447.30473709 125.41784477 C446.09107561 124.20445705 444.87656528 122.99191765 443.66111565 121.78032112 C438.05358636 116.18968871 432.4747138 110.61478175 427.3456049 104.57333374 C425.39809035 102.29622376 423.3091209 100.17668965 421.1875 98.0625 C420.43855469 97.31097656 419.68960937 96.55945313 418.91796875 95.78515625 C417.11779562 93.94138867 417.11779562 93.94138867 415 93 C415.46105656 88.69479564 418.221117 86.37618825 421.16235352 83.49707031 C421.69894592 82.96003983 422.23553833 82.42300934 422.78839111 81.8697052 C424.56154385 80.09864037 426.34508126 78.33843482 428.12890625 76.578125 C429.36124341 75.35138377 430.59291933 74.12397796 431.82395935 72.89593506 C435.06425082 69.66709252 438.3134506 66.44736066 441.5645752 63.22943115 C444.88115011 59.94355589 448.18923834 56.64916121 451.49804688 53.35546875 C457.9904108 46.89526985 464.49221574 40.4446621 471 34 C473.99634858 35.34649133 476.09199585 36.83992597 478.41429043 39.15422821 C479.0740495 39.80692169 479.73380856 40.45961516 480.41356033 41.13208723 C481.12999665 41.85093863 481.84643296 42.56979003 482.58457947 43.3104248 C483.35217718 44.07278584 484.1197749 44.83514688 484.91063315 45.62060976 C487.48941512 48.18435311 490.0609619 50.7552325 492.63256836 53.32617188 C494.47684554 55.16283005 496.32152594 56.9990834 498.1665802 58.83496094 C503.18436853 63.82990141 508.19468379 68.83229375 513.20358729 73.83614159 C516.33286649 76.9621627 519.46377521 80.08654815 522.59503365 83.21058655 C531.26863694 91.86462209 539.94065474 100.52023741 548.60593319 109.18260956 C549.16044581 109.73693461 549.71495843 110.29125966 550.28627447 110.86238244 C551.41035656 111.98609829 552.53443738 113.10981541 553.65851694 114.2335338 C554.21649687 114.79133093 554.77447681 115.34912805 555.34936523 115.92382812 C556.18735826 116.76155033 556.18735826 116.76155033 557.04228044 117.61619622 C566.08872317 126.65909963 575.14683984 135.69020987 584.21019476 144.71615976 C593.52091515 153.98876206 602.82221109 163.27072972 612.1140433 172.56226015 C617.32894341 177.77657639 622.54770385 182.98689018 627.77677727 188.18699646 C632.69745938 193.08054458 637.60505916 197.98688968 642.50416374 202.90203857 C644.30214433 204.70183428 646.10438892 206.49738211 647.91122818 208.2882843 C650.38206563 210.73865536 652.83689576 213.20405065 655.28843689 215.67370605 C656.35974528 216.72521449 656.35974528 216.72521449 657.45269626 217.79796553 C663.52830316 223.97620103 668.04034562 230.66863328 668.625 239.5 C667.90315499 251.9262582 658.91416116 259.80294098 650.578125 268.015625 C649.35042051 269.24161457 648.12360925 270.4684992 646.89764404 271.69622803 C644.33663179 274.25559485 641.76738572 276.80628593 639.19140625 279.35058594 C635.90864403 282.59367424 632.64382439 285.85412795 629.38460159 289.12085342 C626.85607126 291.65246998 624.31996348 294.17638212 621.78139496 296.69792938 C620.57557018 297.89677992 619.37163175 299.09753119 618.16971588 300.3003006 C607.02257506 311.43541915 597.24737639 320.26077286 580.77512616 320.40589231 C579.75118923 320.39988227 578.72725231 320.39387222 577.67228699 320.38768005 C576.56233771 320.39306559 575.45238844 320.39845113 574.30880433 320.40399987 C570.60573906 320.4182574 566.90303237 320.41118089 563.19995117 320.40405273 C560.53831357 320.40975749 557.87670132 320.41662204 555.21507263 320.42485046 C548.74519559 320.4420092 542.2754158 320.44288446 535.80552193 320.43763756 C530.54362503 320.43358864 525.28175676 320.43504797 520.01986122 320.44038582 C519.26964705 320.44113424 518.51943287 320.44188266 517.74648494 320.44265376 C516.22218351 320.44418532 514.6978821 320.44572367 513.17358068 320.44726873 C498.89212071 320.46098355 484.61071558 320.45556358 470.32925687 320.44408352 C457.28196432 320.43415538 444.23481366 320.44708633 431.187543 320.47101771 C417.77167816 320.49543861 404.35587933 320.50500905 390.93999273 320.49836498 C383.41560796 320.49487899 375.89133223 320.49706357 368.36696434 320.51461601 C361.9606513 320.52937561 355.55452408 320.52992479 349.14821454 320.5125451 C345.88382634 320.50406276 342.61983587 320.50400579 339.35545349 320.51719666 C335.80621413 320.53043992 332.25786569 320.51882807 328.70866394 320.50120544 C327.69141918 320.51081045 326.67417442 320.52041546 325.62610406 320.53031152 C309.79469175 320.3694398 296.33613836 312.89152889 285.31315613 301.90193176 C284.00813896 300.56288033 284.00813896 300.56288033 282.67675781 299.19677734 C281.71372001 298.22739723 280.74953694 297.25915379 279.78431702 296.29194641 C277.72924464 294.22793503 275.68221469 292.15639419 273.64136505 290.07831955 C270.40848588 286.7867626 267.15713601 283.51385486 263.90325928 280.24307251 C258.1739512 274.47938134 252.46009671 268.70056649 246.74969482 262.91815186 C238.14573458 254.20592367 229.52970485 245.50567404 220.8989265 236.82001269 C217.67211446 233.57152284 214.45352735 230.31516735 211.24142408 227.05213523 C209.23867804 225.0204866 207.22967546 222.99510932 205.21908379 220.97122765 C203.85573795 219.5949813 202.50007922 218.21113295 201.14472961 216.82701111 C189.73279601 205.37225729 179.70205946 201.63926113 163.59592247 201.56330585 C161.96678013 201.56448469 160.33763798 201.56593516 158.70849609 201.56762695 C156.94510526 201.55851056 155.18172074 201.548095 153.4183445 201.53649426 C148.71992367 201.50913751 144.02162567 201.49943135 139.32313538 201.49352264 C134.90521848 201.48525174 130.48744583 201.46087418 126.06958008 201.43786621 C113.17144887 201.37999089 100.27321276 201.34779595 87.375 201.3125 C44.124375 201.1578125 44.124375 201.1578125 0 201 C0 134.67 0 68.34 0 0 Z " fill="#000002" transform="translate(66,46)"/>
<path d="M0 0 C5.88032638 3.58863602 9.91200708 8.80160517 12.03125 15.3359375 C13.53942381 22.09758341 12.79847137 28.33843974 9.5 34.4375 C5.38443613 40.71982491 0.40090819 44.18169324 -6.84765625 46.0390625 C-13.68023423 47.14353628 -19.47800518 45.81276816 -25.5 42.4375 C-30.98857854 37.8186962 -34.85847994 32.10834272 -35.84765625 24.90625 C-36.2405033 17.73427315 -34.61344011 12.32415238 -30.5 6.4375 C-22.81048718 -2.0227157 -10.71328703 -4.82823187 0 0 Z M-24.5703125 6.2421875 C-29.61645528 11.83728305 -32.04125533 16.42858136 -31.80078125 24.03515625 C-31.13811554 29.32787587 -29.44082852 33.55201079 -25.58203125 37.30078125 C-20.23747766 41.26426436 -15.14831301 42.86781152 -8.5 42.4375 C-2.32071898 41.45595356 1.2466361 38.28181871 5.08984375 33.484375 C8.40818671 28.66772205 8.99610658 24.1923363 8.5 18.4375 C7.28150018 12.33293653 4.42744951 8.72316238 -0.375 4.84765625 C-7.85227139 -0.11428304 -17.75148621 0.29822949 -24.5703125 6.2421875 Z " fill="#010102" transform="translate(593.5,47.5625)"/>
<path d="M0 0 C3.83625 -0.12375 3.83625 -0.12375 7.75 -0.25 C8.54889648 -0.28641602 9.34779297 -0.32283203 10.17089844 -0.36035156 C13.67805664 -0.4151233 15.63274436 -0.26882192 18.4921875 1.82421875 C20.50783155 4.73280356 20.44283062 6.53116011 20 10 C19.01 11.485 19.01 11.485 18 13 C18.99 14.485 18.99 14.485 20 16 C20.4140625 18.26171875 20.4140625 18.26171875 20.625 20.6875 C20.69976563 21.49574219 20.77453125 22.30398437 20.8515625 23.13671875 C20.92503906 24.05904297 20.92503906 24.05904297 21 25 C19.02 25 17.04 25 15 25 C14.34 22.03 13.68 19.06 13 16 C10.36 15.67 7.72 15.34 5 15 C5 18.3 5 21.6 5 25 C3.35 25 1.7 25 0 25 C0 16.75 0 8.5 0 0 Z M5 5 C5 6.98 5 8.96 5 11 C9.79308342 11.46522293 9.79308342 11.46522293 13.9375 9.5 C14.288125 9.005 14.63875 8.51 15 8 C14.67 7.01 14.34 6.02 14 5 C11.03 5 8.06 5 5 5 Z " fill="#000001" transform="translate(573,57)"/>
</svg>
